<svg data-v-fde0c5aa="" xmlns="http://www.w3.org/2000/svg" viewBox="0 0 300 300" class="font"><!----><defs data-v-fde0c5aa=""><!----></defs><rect data-v-fde0c5aa="" fill="#E8DCEF" x="0" y="0" width="300px" height="300px" class="logo-background-square"></rect><defs data-v-fde0c5aa=""><linearGradient data-v-fde0c5aa="" gradientTransform="rotate(25)" id="e2816e66-c4dc-426b-ab5f-15fcb2bb9901" x1="0%" y1="0%" x2="100%" y2="0%"><stop data-v-fde0c5aa="" offset="0%" stop-color="#49247E" stop-opacity="1"></stop><stop data-v-fde0c5aa="" offset="100%" stop-color="#AA49C7" stop-opacity="1"></stop></linearGradient></defs><g data-v-fde0c5aa="" id="4b67c256-d897-4098-9668-ff8e0aa6d624" fill="url(#e2816e66-c4dc-426b-ab5f-15fcb2bb9901)" transform="matrix(2.7883396165441243,0,0,2.7883396165441243,38.91254750633632,133.21419556158773)"><path d="M2.95 5.85L2.95 5.85L2.95 5.85Q2.95 7.52 3.81 8.50L3.81 8.50L3.81 8.50Q4.66 9.47 6.14 9.47L6.14 9.47L6.14 9.47Q6.53 9.47 6.70 9.46L6.70 9.46L6.70 9.46Q6.87 9.45 7.15 9.38L7.15 9.38L7.15 9.38Q7.35 9.34 7.51 9.29L7.51 9.29L7.51 9.29Q7.67 9.23 7.82 9.15L7.82 9.15L7.82 8.83L7.82 8.57L7.82 8.35L7.82 8.17L7.82 8.03L7.82 8.03Q7.82 7.88 7.81 7.69L7.81 7.69L7.81 7.69Q7.80 7.51 7.77 7.28L7.77 7.28L7.73 6.55L6.82 6.35L6.82 5.75L8.78 5.79L10.77 5.75L10.77 6.36L10.20 6.55L10.14 8.89L10.74 9.38L10.74 9.38Q10.26 9.71 9.73 9.97L9.73 9.97L9.73 9.97Q9.20 10.23 8.55 10.47L8.55 10.47L8.55 10.47Q7.38 10.87 5.98 10.87L5.98 10.87L5.98 10.87Q3.55 10.87 1.97 9.50L1.97 9.50L1.97 9.50Q0.39 8.14 0.39 6.02L0.39 6.02L0.39 6.02Q0.39 3.98 2.12 2.57L2.12 2.57L2.12 2.57Q3.85 1.17 6.34 1.17L6.34 1.17L6.34 1.17Q6.93 1.17 7.37 1.20L7.37 1.20L7.37 1.20Q7.80 1.24 8.26 1.35L8.26 1.35L8.26 1.35Q9.08 1.50 9.69 1.78L9.69 1.78L9.69 1.78Q9.51 2.39 9.41 2.88L9.41 2.88L9.22 3.97L8.61 3.93L8.47 3.13L8.47 3.13Q8.21 2.99 7.95 2.90L7.95 2.90L7.95 2.90Q7.70 2.81 7.34 2.70L7.34 2.70L7.34 2.70Q6.70 2.55 6.12 2.55L6.12 2.55L6.12 2.55Q4.62 2.55 3.79 3.42L3.79 3.42L3.79 3.42Q2.95 4.29 2.95 5.85ZM17.90 2.11L17.29 1.95L17.29 1.35L18.89 1.38L20.40 1.35L20.40 1.95L19.60 2.11L16.60 6.77L16.60 7.67L16.60 7.67Q16.60 7.97 16.61 8.31L16.61 8.31L16.61 8.31Q16.62 8.65 16.66 9.03L16.66 9.03L16.66 9.03Q16.66 9.39 16.68 9.59L16.68 9.59L16.68 9.59Q16.70 9.79 16.74 9.91L16.74 9.91L17.72 10.08L17.72 10.68L15.39 10.64L13.07 10.68L13.07 10.08L14.05 9.91L14.05 9.91Q14.07 9.84 14.10 9.62L14.10 9.62L14.10 9.62Q14.13 9.40 14.13 9.03L14.13 9.03L14.19 7.67L14.19 6.76L11.24 2.11L10.43 1.95L10.43 1.35L12.56 1.38L14.61 1.35L14.61 1.95L14 2.11L15.94 5.84L17.90 2.11ZM29.20 1.38L30.65 1.38L33.05 1.35L33.05 1.95L32.23 2.11L32.15 3.00L32.15 3.00Q32.15 3.24 32.12 3.69L32.12 3.69L32.12 3.69Q32.10 4.15 32.10 4.35L32.10 4.35L32.10 7.67L32.10 7.67Q32.10 7.97 32.11 8.31L32.11 8.31L32.11 8.31Q32.12 8.65 32.16 9.03L32.16 9.03L32.16 9.03Q32.16 9.44 32.18 9.62L32.18 9.62L32.18 9.62Q32.21 9.81 32.27 9.91L32.27 9.91L33.24 10.08L33.24 10.68L30.99 10.64L28.91 10.68L28.91 10.08L29.75 9.91L29.75 9.91Q29.76 9.88 29.80 9.64L29.80 9.64L29.80 9.64Q29.83 9.40 29.83 9.03L29.83 9.03L29.88 7.67L29.83 2.99L27.12 10.68L25.66 10.68L23.00 3.00L22.96 5.85L22.96 5.85Q22.96 6.59 22.98 7.36L22.98 7.36L22.98 7.36Q23.00 8.13 23.01 8.59L23.01 8.59L23.01 8.59Q23.01 9.14 23.04 9.48L23.04 9.48L23.04 9.48Q23.08 9.82 23.13 9.91L23.13 9.91L23.93 10.08L23.93 10.68L22.28 10.64L20.65 10.68L20.65 10.08L21.45 9.91L21.45 9.91Q21.48 9.82 21.52 9.47L21.52 9.47L21.52 9.47Q21.57 9.11 21.57 8.59L21.57 8.59L21.61 5.85L21.65 4.00L21.60 2.86L21.60 2.86Q21.60 2.14 21.54 2.11L21.54 2.11L20.89 1.95L20.89 1.35L23.16 1.38L24.68 1.38L26.93 7.98L29.20 1.38ZM39.56 7.67L39.56 4.35L39.52 3.00L39.52 3.00Q39.52 2.62 39.50 2.42L39.50 2.42L39.50 2.42Q39.47 2.23 39.43 2.11L39.43 2.11L38.60 1.95L38.60 1.35L40.75 1.38L42.92 1.35L42.92 1.95L42.10 2.11L42.10 2.11Q42.06 2.20 42.03 2.44L42.03 2.44L42.03 2.44Q42 2.67 42 3.00L42 3.00L41.96 4.35L41.96 5.04L45.65 5.04L45.66 4.35L45.66 4.35Q45.66 4.15 45.63 3.62L45.63 3.62L45.63 3.62Q45.61 3.10 45.61 3.00L45.61 3.00L45.61 3.00Q45.61 2.65 45.59 2.44L45.59 2.44L45.59 2.44Q45.56 2.24 45.53 2.11L45.53 2.11L44.69 1.95L44.69 1.35L46.85 1.38L49.01 1.35L49.01 1.95L48.18 2.11L48.09 3.00L48.05 4.35L48.05 7.67L48.09 9.03L48.09 9.03Q48.09 9.34 48.12 9.58L48.12 9.58L48.12 9.58Q48.15 9.82 48.18 9.91L48.18 9.91L49.01 10.08L49.01 10.68L46.85 10.64L44.69 10.68L44.69 10.08L45.53 9.91L45.53 9.91Q45.55 9.84 45.58 9.62L45.58 9.62L45.58 9.62Q45.61 9.40 45.61 9.03L45.61 9.03L45.61 9.03Q45.61 8.70 45.63 8.31L45.63 8.31L45.63 8.31Q45.65 7.92 45.66 7.67L45.66 7.67L45.66 6.23L41.98 6.23L41.96 7.67L42 9.03L42 9.03Q42 9.41 42.02 9.61L42.02 9.61L42.02 9.61Q42.05 9.81 42.10 9.91L42.10 9.91L42.92 10.08L42.92 10.68L40.75 10.64L38.60 10.68L38.60 10.08L39.43 9.91L39.43 9.91Q39.46 9.79 39.49 9.48L39.49 9.48L39.49 9.48Q39.52 9.16 39.52 9.03L39.52 9.03L39.56 7.67ZM57.89 10.64L51.93 10.64L49.77 10.68L49.77 10.08L50.59 9.91L50.59 9.91Q50.63 9.79 50.66 9.48L50.66 9.48L50.66 9.48Q50.69 9.16 50.69 9.03L50.69 9.03L50.72 7.67L50.72 4.35L50.69 3.00L50.69 3.00Q50.69 2.62 50.66 2.42L50.66 2.42L50.66 2.42Q50.64 2.23 50.59 2.11L50.59 2.11L49.77 1.95L49.77 1.35L51.93 1.38L57.49 1.38L57.67 2.35L57.67 2.35Q57.73 2.60 57.79 2.84L57.79 2.84L57.79 2.84Q57.85 3.07 57.93 3.29L57.93 3.29L57.32 3.54L56.91 2.90L56.91 2.90Q56.80 2.82 55.89 2.73L55.89 2.73L55.89 2.73Q54.99 2.65 53.81 2.65L53.81 2.65L53.20 2.65L53.14 5.04L54.89 5.00L54.89 5.00Q55.24 5.00 55.48 4.98L55.48 4.98L55.48 4.98Q55.71 4.96 55.77 4.93L55.77 4.93L56.01 4.28L56.61 4.28L56.57 5.58L56.61 6.87L56.01 6.87L55.77 6.22L54.94 6.17L53.14 6.14L53.14 6.82L53.20 9.41L54.07 9.41L54.07 9.41Q55.31 9.41 56.24 9.28L56.24 9.28L56.24 9.28Q57.17 9.14 57.33 9.07L57.33 9.07L57.78 8.30L58.42 8.54L57.89 10.64ZM63.04 6.49L62.35 6.49L62.35 7.67L62.39 9.03L62.39 9.03Q62.39 9.41 62.41 9.61L62.41 9.61L62.41 9.61Q62.43 9.81 62.48 9.91L62.48 9.91L63.30 10.08L63.30 10.68L61.14 10.64L58.98 10.68L58.98 10.08L59.80 9.91L59.80 9.91Q59.84 9.79 59.87 9.48L59.87 9.48L59.87 9.48Q59.90 9.16 59.90 9.03L59.90 9.03L59.93 7.67L59.93 4.35L59.90 3.00L59.90 3.00Q59.90 2.68 59.87 2.45L59.87 2.45L59.87 2.45Q59.84 2.22 59.80 2.11L59.80 2.11L58.98 1.95L58.98 1.35L61.14 1.38L64.61 1.31L64.61 1.31Q66.21 1.31 67.03 1.92L67.03 1.92L67.03 1.92Q67.86 2.53 67.86 3.75L67.86 3.75L67.86 3.75Q67.86 4.55 67.26 5.24L67.26 5.24L67.26 5.24Q66.66 5.92 65.46 6.16L65.46 6.16L68.67 9.90L69.11 10.08L69.12 10.68L69.12 10.68Q68.80 10.68 68.31 10.69L68.31 10.69L68.31 10.69Q67.82 10.71 67.81 10.71L67.81 10.71L66.54 10.82L66.25 10.87L66.25 10.87Q65.66 10.04 65.14 9.31L65.14 9.31L65.14 9.31Q64.75 8.76 64.39 8.28L64.39 8.28L63.04 6.49ZM62.36 2.63L62.36 5.28L63.21 5.35L63.21 5.35Q64.21 5.35 64.75 4.97L64.75 4.97L64.75 4.97Q65.29 4.60 65.29 3.80L65.29 3.80L65.29 3.80Q65.29 3.10 64.85 2.82L64.85 2.82L64.85 2.82Q64.40 2.54 63.47 2.54L63.47 2.54L63.47 2.54Q63.33 2.54 63.20 2.54L63.20 2.54L63.20 2.54Q63.07 2.54 62.89 2.56L62.89 2.56L62.89 2.56Q62.72 2.56 62.61 2.57L62.61 2.57L62.61 2.57Q62.49 2.59 62.36 2.63L62.36 2.63ZM76.74 6.02L76.74 6.02L76.74 6.02Q76.74 4.47 75.95 3.47L75.95 3.47L75.95 3.47Q75.15 2.48 73.87 2.48L73.87 2.48L73.87 2.48Q72.61 2.48 71.82 3.48L71.82 3.48L71.82 3.48Q71.02 4.48 71.02 6.02L71.02 6.02L71.02 6.02Q71.02 7.54 71.82 8.55L71.82 8.55L71.82 8.55Q72.62 9.56 73.87 9.56L73.87 9.56L73.87 9.56Q75.12 9.56 75.93 8.55L75.93 8.55L75.93 8.55Q76.74 7.54 76.74 6.02ZM79.29 6.02L79.29 6.02L79.29 6.02Q79.29 8.23 77.78 9.57L77.78 9.57L77.78 9.57Q76.31 10.87 73.84 10.87L73.84 10.87L73.84 10.87Q71.39 10.87 69.93 9.56L69.93 9.56L69.93 9.56Q68.47 8.26 68.47 6.02L68.47 6.02L68.47 6.02Q68.47 3.77 69.96 2.47L69.96 2.47L69.96 2.47Q71.45 1.17 73.92 1.17L73.92 1.17L73.92 1.17Q76.39 1.17 77.84 2.47L77.84 2.47L77.84 2.47Q79.29 3.77 79.29 6.02Z"></path></g><!----><!----></svg>